<svg xmlns="http://www.w3.org/2000/svg" viewBox="0 0 144 144" fill="none">
  <defs>
    <linearGradient id="refreshGlow" x1="92" y1="16" x2="126" y2="48" gradientUnits="userSpaceOnUse">
      <stop offset="0" stop-color="#FDE68A" />
      <stop offset="1" stop-color="#F59E0B" />
    </linearGradient>
  </defs>
  <g
    stroke="#F8FAFC"
    stroke-width="2"
    stroke-linecap="round"
    stroke-linejoin="round"
    transform="translate(18 24) scale(4)"
  >
    <rect x="2" y="3" width="20" height="14" rx="2" />
    <path d="M12 17v4" />
    <path d="M8 21h8" />
  </g>
  <circle cx="110" cy="32" r="18" fill="#0F172A" fill-opacity=".88" />
  <g
    stroke="url(#refreshGlow)"
    stroke-width="2.15"
    stroke-linecap="round"
    stroke-linejoin="round"
    transform="translate(92 14) scale(1.5)"
  >
    <path d="M3 12a9 9 0 0 1 9-9 9.75 9.75 0 0 1 6.74 2.74L21 8" />
    <path d="M21 3v5h-5" />
    <path d="M21 12a9 9 0 0 1-9 9 9.75 9.75 0 0 1-6.74-2.74L3 16" />
    <path d="M8 16H3v5" />
  </g>
</svg>
