<svg xmlns="http://www.w3.org/2000/svg" viewBox="0 0 144 144" fill="none">
  <g
    stroke="#F8FAFC"
    stroke-width="2"
    stroke-linecap="round"
    stroke-linejoin="round"
    transform="translate(18 24) scale(4)"
  >
    <path d="M12 17v4" />
    <path d="M17 17H4a2 2 0 0 1-2-2V5a2 2 0 0 1 1.184-1.826" />
    <path d="m2 2 20 20" />
    <path d="M8 21h8" />
    <path d="M8.656 3H20a2 2 0 0 1 2 2v10a2 2 0 0 1-.293 1.042" />
  </g>
  <g
    stroke="#FBBF24"
    stroke-width="2"
    stroke-linecap="round"
    stroke-linejoin="round"
    transform="translate(93 14) scale(1.55)"
  >
    <path d="M18 5h4" />
    <path d="M20 3v4" />
    <path d="M20.985 12.486a9 9 0 1 1-9.473-9.472c.405-.022.617.46.402.803a6 6 0 0 0 8.268 8.268c.344-.215.825-.004.803.401" />
  </g>
</svg>
